# xmcd CD database file
#
# Track frame offsets:
#	150
#	20192
#	33453
#	53611
#	84527
#	104594
#	123863
#	142891
#	161958
#	184014
#	203442
#	216099
#
# Disc length: 3174 seconds
#
# Revision: 0
# Processed by: cddbd v1.5.2PL0 Copyright (c) Steve Scherf et al.
# Submitted via: CDex 1.51
#
DISCID=a30c640c
DTITLE=Gary Moore - Platinum: Gary Moore
DYEAR=2008
DGENRE=Blues
TTITLE0=Oh Pretty Woman
TTITLE1=Walking by Myself
TTITLE2=That Kind of Woman
TTITLE3=Parisienne Walkways
TTITLE4=Cold Day in Hell
TTITLE5=Out in the Fields
TTITLE6=Run for Cover
TTITLE7=Shapes of Things to Come
TTITLE8=Wishing Well (Live)
TTITLE9=After the War
TTITLE10=Rockin´ Every Night
TTITLE11=The Sky Is Crying
EXTD=YEAR: 2008
EXTT0=
EXTT1=
EXTT2=
EXTT3=
EXTT4=
EXTT5=
EXTT6=
EXTT7=
EXTT8=
EXTT9=
EXTT10=
EXTT11=
PLAYORDER=
